<svg xmlns="http://www.w3.org/2000/svg" width="34" height="34" fill="none"><g filter="url(#a)"><path fill="#fff" fill-rule="evenodd" d="M19.252 4.077a6.797 6.797 0 0 1 9.782 0c2.621 2.702 2.621 7.034 0 9.736-1.974 2.035-4.814 6.16-8.447 12.663-2.502 4.478-8.805 4.754-11.659.454-1.187-1.79-2.305-3.014-3.303-3.807-2.965-2.356-3.476-6.659-1.235-9.657 2.126-2.844 6.027-3.583 9.006-1.758 2.06-3.16 4.007-5.725 5.855-7.63Zm-2.796 10.265c2.087-3.241 3.97-5.73 5.667-7.48a2.797 2.797 0 0 1 4.04 0 3.01 3.01 0 0 1 0 4.166c-2.363 2.435-5.413 6.955-9.068 13.497a2.813 2.813 0 0 1-4.834.193c-1.35-2.034-2.737-3.606-4.148-4.727-1.25-.993-1.482-2.842-.519-4.13a2.802 2.802 0 0 1 4.007-.536 21.902 21.902 0 0 1 2.678 2.546 114.64 114.64 0 0 1 2.177-3.53Z" clip-rule="evenodd"/></g><path fill="#2D2D2D" d="M22.123 6.863a2.797 2.797 0 0 1 4.04 0 3.01 3.01 0 0 1 0 4.165c-2.363 2.435-5.413 6.955-9.068 13.497a2.813 2.813 0 0 1-4.834.193c-1.35-2.034-2.737-3.606-4.148-4.727-1.25-.993-1.482-2.842-.519-4.13.963-1.289 2.757-1.529 4.007-.536a21.902 21.902 0 0 1 2.678 2.546c2.975-5.011 5.575-8.67 7.844-11.008Z"/><defs><filter id="a" width="34" height="34" x="0" y="0" color-interpolation-filters="sRGB" filterUnits="userSpaceOnUse"><feFlood flood-opacity="0" result="BackgroundImageFix"/><feColorMatrix in="SourceAlpha" result="hardAlpha" values="0 0 0 0 0 0 0 0 0 0 0 0 0 0 0 0 0 0 127 0"/><feOffset dy="1"/><feGaussianBlur stdDeviation="1.5"/><feComposite in2="hardAlpha" operator="out"/><feColorMatrix values="0 0 0 0 0 0 0 0 0 0 0 0 0 0 0 0 0 0 0.12 0"/><feBlend in2="BackgroundImageFix" result="effect1_dropShadow_169_5651"/><feColorMatrix in="SourceAlpha" result="hardAlpha" values="0 0 0 0 0 0 0 0 0 0 0 0 0 0 0 0 0 0 127 0"/><feOffset dy="1"/><feGaussianBlur stdDeviation=".5"/><feComposite in2="hardAlpha" operator="out"/><feColorMatrix values="0 0 0 0 0 0 0 0 0 0 0 0 0 0 0 0 0 0 0.14 0"/><feBlend in2="effect1_dropShadow_169_5651" result="effect2_dropShadow_169_5651"/><feColorMatrix in="SourceAlpha" result="hardAlpha" values="0 0 0 0 0 0 0 0 0 0 0 0 0 0 0 0 0 0 127 0"/><feOffset dy="2"/><feGaussianBlur stdDeviation=".5"/><feComposite in2="hardAlpha" operator="out"/><feColorMatrix values="0 0 0 0 0 0 0 0 0 0 0 0 0 0 0 0 0 0 0.2 0"/><feBlend in2="effect2_dropShadow_169_5651" result="effect3_dropShadow_169_5651"/><feBlend in="SourceGraphic" in2="effect3_dropShadow_169_5651" result="shape"/></filter></defs></svg>