<svg xmlns="http://www.w3.org/2000/svg" width="32" height="32" fill="none"><g filter="url(#a)"><path fill="#fff" fill-rule="evenodd" d="M23.286 4a2 2 0 0 1 1.421.593l2.715 2.742a2 2 0 0 1 0 2.814c-2.699 2.726-6.271 7.511-10.691 14.442l-1.585 2.485a2 2 0 0 1-3.355.027l-1.625-2.459c-1.556-2.354-3.244-3.861-5.026-4.71a2 2 0 0 1-.952-2.652l1.638-3.508a2 2 0 0 1 2.673-.959 18.218 18.218 0 0 1 4.532 3.099c3.353-4.966 6.293-8.755 8.833-11.32A2 2 0 0 1 23.286 4ZM14.46 17.37c-.376.56-.758 1.136-1.146 1.728a19.971 19.971 0 0 0-1.41-1.497A17.064 17.064 0 0 0 9.389 15.6a15.45 15.45 0 0 0-1.75-.98L6 18.128c2.184 1.04 4.129 2.832 5.835 5.413l1.624 2.46 1.585-2.486C19.482 16.56 23.146 11.625 26 8.742L23.286 6c-.442.446-.898.933-1.369 1.46-2.166 2.43-4.648 5.73-7.456 9.91Z" clip-rule="evenodd"/></g><path fill="#2D2D2D" d="M23.285 6 26 8.742c-2.854 2.884-6.52 7.818-10.956 14.773L13.46 26l-1.625-2.459C10.128 20.96 8.184 19.17 6 18.128l1.638-3.508c2.103 1.003 3.996 2.5 5.677 4.478C17.227 13.131 20.542 8.772 23.285 6Z"/><defs><filter id="a" width="30" height="30" x="1" y="2" color-interpolation-filters="sRGB" filterUnits="userSpaceOnUse"><feFlood flood-opacity="0" result="BackgroundImageFix"/><feColorMatrix in="SourceAlpha" result="hardAlpha" values="0 0 0 0 0 0 0 0 0 0 0 0 0 0 0 0 0 0 127 0"/><feOffset dy="1"/><feGaussianBlur stdDeviation="1.5"/><feComposite in2="hardAlpha" operator="out"/><feColorMatrix values="0 0 0 0 0 0 0 0 0 0 0 0 0 0 0 0 0 0 0.12 0"/><feBlend in2="BackgroundImageFix" result="effect1_dropShadow_169_5851"/><feColorMatrix in="SourceAlpha" result="hardAlpha" values="0 0 0 0 0 0 0 0 0 0 0 0 0 0 0 0 0 0 127 0"/><feOffset dy="1"/><feGaussianBlur stdDeviation=".5"/><feComposite in2="hardAlpha" operator="out"/><feColorMatrix values="0 0 0 0 0 0 0 0 0 0 0 0 0 0 0 0 0 0 0.14 0"/><feBlend in2="effect1_dropShadow_169_5851" result="effect2_dropShadow_169_5851"/><feColorMatrix in="SourceAlpha" result="hardAlpha" values="0 0 0 0 0 0 0 0 0 0 0 0 0 0 0 0 0 0 127 0"/><feOffset dy="2"/><feGaussianBlur stdDeviation=".5"/><feComposite in2="hardAlpha" operator="out"/><feColorMatrix values="0 0 0 0 0 0 0 0 0 0 0 0 0 0 0 0 0 0 0.2 0"/><feBlend in2="effect2_dropShadow_169_5851" result="effect3_dropShadow_169_5851"/><feBlend in="SourceGraphic" in2="effect3_dropShadow_169_5851" result="shape"/></filter></defs></svg>