<svg xmlns="http://www.w3.org/2000/svg" width="32" height="33" fill="none"><g filter="url(#a)"><path fill="#fff" fill-rule="evenodd" d="M23.286 3a3 3 0 0 1 2.132.89l2.714 2.742a3 3 0 0 1 0 4.22c-2.62 2.648-6.146 7.359-10.558 14.276l-1.585 2.485a3 3 0 0 1-5.032.041l-1.625-2.459c-1.481-2.24-3.042-3.606-4.623-4.36a3 3 0 0 1-1.427-3.977l1.638-3.507a3 3 0 0 1 4.009-1.439c1.397.666 2.7 1.507 3.91 2.506 3.109-4.537 5.877-8.066 8.315-10.529A3 3 0 0 1 23.286 3Zm-8.248 13.517c-.56.824-1.135 1.684-1.723 2.581a19.294 19.294 0 0 0-2.16-2.176c-.305-.261-.616-.51-.933-.744a15.667 15.667 0 0 0-2.584-1.558L6 18.128c2.105 1.003 3.986 2.702 5.647 5.134.063.092.125.185.188.28L13.459 26l1.585-2.485.182-.284C19.58 16.425 23.185 11.586 26 8.742L23.286 6c-.645.65-1.32 1.39-2.028 2.216-1.853 2.163-3.924 4.929-6.22 8.301Z" clip-rule="evenodd"/></g><path fill="#00AD00" d="M23.285 6 26 8.742c-2.854 2.884-6.52 7.818-10.956 14.773L13.46 26l-1.625-2.459C10.128 20.96 8.184 19.17 6 18.128l1.638-3.508c2.103 1.003 3.996 2.5 5.677 4.478C17.227 13.131 20.542 8.772 23.285 6Z"/><defs><filter id="a" width="32.001" height="32" x="-.001" y="1" color-interpolation-filters="sRGB" filterUnits="userSpaceOnUse"><feFlood flood-opacity="0" result="BackgroundImageFix"/><feColorMatrix in="SourceAlpha" result="hardAlpha" values="0 0 0 0 0 0 0 0 0 0 0 0 0 0 0 0 0 0 127 0"/><feOffset dy="1"/><feGaussianBlur stdDeviation="1.5"/><feComposite in2="hardAlpha" operator="out"/><feColorMatrix values="0 0 0 0 0 0 0 0 0 0 0 0 0 0 0 0 0 0 0.12 0"/><feBlend in2="BackgroundImageFix" result="effect1_dropShadow_169_5753"/><feColorMatrix in="SourceAlpha" result="hardAlpha" values="0 0 0 0 0 0 0 0 0 0 0 0 0 0 0 0 0 0 127 0"/><feOffset dy="1"/><feGaussianBlur stdDeviation=".5"/><feComposite in2="hardAlpha" operator="out"/><feColorMatrix values="0 0 0 0 0 0 0 0 0 0 0 0 0 0 0 0 0 0 0.14 0"/><feBlend in2="effect1_dropShadow_169_5753" result="effect2_dropShadow_169_5753"/><feColorMatrix in="SourceAlpha" result="hardAlpha" values="0 0 0 0 0 0 0 0 0 0 0 0 0 0 0 0 0 0 127 0"/><feOffset dy="2"/><feGaussianBlur stdDeviation=".5"/><feComposite in2="hardAlpha" operator="out"/><feColorMatrix values="0 0 0 0 0 0 0 0 0 0 0 0 0 0 0 0 0 0 0.2 0"/><feBlend in2="effect2_dropShadow_169_5753" result="effect3_dropShadow_169_5753"/><feBlend in="SourceGraphic" in2="effect3_dropShadow_169_5753" result="shape"/></filter></defs></svg>