<svg xmlns="http://www.w3.org/2000/svg" width="34" height="34" fill="none"><g filter="url(#a)"><path fill="#fff" fill-rule="evenodd" d="M25.351 17.574c.28.42.501.722.665.92 2.409 2.928 1.892 7.207-1.069 9.51-2.857 2.22-7 1.83-9.37-.93l-1.03 1c-2.641 2.568-6.877 2.568-9.518 0a6.656 6.656 0 0 1 0-9.568l3.393-3.299a356.274 356.274 0 0 1-1.8-3.455c-1.746-3.394-.28-7.442 3.056-9.063 3.172-1.542 7.079-.423 8.876 2.67l.899-.872 2.788 2.868-4.738 4.605a305.5 305.5 0 0 1-2.337-4.462c-.688-1.338-2.363-1.88-3.74-1.211-1.377.669-1.935 2.297-1.247 3.635 1.168 2.27 2.23 4.286 3.193 6.053l-5.555 5.4a2.656 2.656 0 0 0 0 3.831 2.845 2.845 0 0 0 3.942 0l4.425-4.3c.893 1.47 1.648 2.59 2.271 3.37l.118.146c.962 1.169 2.717 1.358 3.919.423a2.659 2.659 0 0 0 .435-3.808c-.626-.761-1.519-2.134-2.662-4.097l5.918-5.753a2.656 2.656 0 0 0 0-3.832 2.845 2.845 0 0 0-3.942 0l-2.788-2.868c2.641-2.567 6.877-2.567 9.518 0a6.656 6.656 0 0 1 0 9.569l-3.62 3.518Z" clip-rule="evenodd"/></g><path fill="#73828F" d="M20.265 16.94c1.143 1.963 2.036 3.335 2.662 4.097a2.659 2.659 0 0 1-.435 3.809c-1.202.934-2.957.745-3.919-.424-.645-.784-1.439-1.952-2.39-3.516l-4.424 4.3a2.845 2.845 0 0 1-3.942 0 2.656 2.656 0 0 1 0-3.832l5.555-5.4a294.445 294.445 0 0 1-3.193-6.052c-.688-1.338-.13-2.966 1.247-3.635 1.377-.67 3.052-.127 3.74 1.211a317.36 317.36 0 0 0 2.337 4.462l4.738-4.605a2.845 2.845 0 0 1 3.942 0 2.656 2.656 0 0 1 0 3.832l-5.918 5.753Z"/><defs><filter id="a" width="34" height="33.999" x="0" y=".001" color-interpolation-filters="sRGB" filterUnits="userSpaceOnUse"><feFlood flood-opacity="0" result="BackgroundImageFix"/><feColorMatrix in="SourceAlpha" result="hardAlpha" values="0 0 0 0 0 0 0 0 0 0 0 0 0 0 0 0 0 0 127 0"/><feOffset dy="1"/><feGaussianBlur stdDeviation="1.5"/><feComposite in2="hardAlpha" operator="out"/><feColorMatrix values="0 0 0 0 0 0 0 0 0 0 0 0 0 0 0 0 0 0 0.12 0"/><feBlend in2="BackgroundImageFix" result="effect1_dropShadow_169_5624"/><feColorMatrix in="SourceAlpha" result="hardAlpha" values="0 0 0 0 0 0 0 0 0 0 0 0 0 0 0 0 0 0 127 0"/><feOffset dy="1"/><feGaussianBlur stdDeviation=".5"/><feComposite in2="hardAlpha" operator="out"/><feColorMatrix values="0 0 0 0 0 0 0 0 0 0 0 0 0 0 0 0 0 0 0.14 0"/><feBlend in2="effect1_dropShadow_169_5624" result="effect2_dropShadow_169_5624"/><feColorMatrix in="SourceAlpha" result="hardAlpha" values="0 0 0 0 0 0 0 0 0 0 0 0 0 0 0 0 0 0 127 0"/><feOffset dy="2"/><feGaussianBlur stdDeviation=".5"/><feComposite in2="hardAlpha" operator="out"/><feColorMatrix values="0 0 0 0 0 0 0 0 0 0 0 0 0 0 0 0 0 0 0.2 0"/><feBlend in2="effect2_dropShadow_169_5624" result="effect3_dropShadow_169_5624"/><feBlend in="SourceGraphic" in2="effect3_dropShadow_169_5624" result="shape"/></filter></defs></svg>