<svg xmlns="http://www.w3.org/2000/svg" width="32" height="33" fill="none"><g filter="url(#a)"><path fill="#fff" fill-rule="evenodd" d="M25.026 22.953a3 3 0 0 1-1.117 2.018l-3.19 2.532a3 3 0 0 1-4.2-.466c-.548-.68-1.155-1.545-1.817-2.58l-3.7 3.672a3 3 0 0 1-4.227 0l-2.888-2.866a3 3 0 0 1 0-4.259l5.67-5.626A385.714 385.714 0 0 1 6.36 9.163a3 3 0 0 1 1.345-4.038l3.654-1.812a3 3 0 0 1 4.013 1.337 428.45 428.45 0 0 0 1.676 3.293l3.95-3.92a3 3 0 0 1 4.226 0l2.888 2.866a3 3 0 0 1 0 4.26l-6.063 6.017c1.034 1.756 1.807 2.925 2.33 3.573a3 3 0 0 1 .646 2.214ZM18.3 16.659 26 9.02l-2.89-2.866-6.837 6.785c-.464-.873-.95-1.8-1.458-2.78-.67-1.294-1.378-2.68-2.123-4.158L9.04 7.813c.467.927.92 1.818 1.358 2.675a300.674 300.674 0 0 0 2.855 5.449L6 23.134 8.888 26l6.414-6.364a83.913 83.913 0 0 0 1.83 3.054c.6.943 1.13 1.71 1.592 2.3l.13.164 3.19-2.532a11.992 11.992 0 0 1-.102-.13c-.867-1.107-2.085-3.057-3.641-5.833Z" clip-rule="evenodd"/></g><path fill="#F80800" d="m22.044 22.622-3.19 2.532c-.904-1.122-2.084-2.956-3.553-5.518L8.888 26 6 23.134l7.252-7.197A340.915 340.915 0 0 1 9.04 7.813L12.693 6a359.696 359.696 0 0 0 3.58 6.938l6.839-6.785L26 9.019l-7.7 7.64c1.62 2.887 2.872 4.882 3.744 5.963Z"/><defs><filter id="a" width="32" height="32.001" x="0" y=".999" color-interpolation-filters="sRGB" filterUnits="userSpaceOnUse"><feFlood flood-opacity="0" result="BackgroundImageFix"/><feColorMatrix in="SourceAlpha" result="hardAlpha" values="0 0 0 0 0 0 0 0 0 0 0 0 0 0 0 0 0 0 127 0"/><feOffset dy="1"/><feGaussianBlur stdDeviation="1.5"/><feComposite in2="hardAlpha" operator="out"/><feColorMatrix values="0 0 0 0 0 0 0 0 0 0 0 0 0 0 0 0 0 0 0.12 0"/><feBlend in2="BackgroundImageFix" result="effect1_dropShadow_169_5757"/><feColorMatrix in="SourceAlpha" result="hardAlpha" values="0 0 0 0 0 0 0 0 0 0 0 0 0 0 0 0 0 0 127 0"/><feOffset dy="1"/><feGaussianBlur stdDeviation=".5"/><feComposite in2="hardAlpha" operator="out"/><feColorMatrix values="0 0 0 0 0 0 0 0 0 0 0 0 0 0 0 0 0 0 0.14 0"/><feBlend in2="effect1_dropShadow_169_5757" result="effect2_dropShadow_169_5757"/><feColorMatrix in="SourceAlpha" result="hardAlpha" values="0 0 0 0 0 0 0 0 0 0 0 0 0 0 0 0 0 0 127 0"/><feOffset dy="2"/><feGaussianBlur stdDeviation=".5"/><feComposite in2="hardAlpha" operator="out"/><feColorMatrix values="0 0 0 0 0 0 0 0 0 0 0 0 0 0 0 0 0 0 0.2 0"/><feBlend in2="effect2_dropShadow_169_5757" result="effect3_dropShadow_169_5757"/><feBlend in="SourceGraphic" in2="effect3_dropShadow_169_5757" result="shape"/></filter></defs></svg>